<svg width="81" height="61" viewBox="0 0 81 61" fill="none" xmlns="http://www.w3.org/2000/svg">
<path d="M62.5598 29.9842L63 28.481V8.21899C63 3.7007 59.2265 0 54.5994 0H8.40064C3.78249 0 0 3.7007 0 8.21899V41.7809C0 46.2992 3.78249 50 8.40064 50H37.6814V37.5703C37.6814 34.4233 40.296 31.8653 43.5124 31.8653H46.0461C48.6696 31.8653 50.9158 33.5355 51.6345 35.9353H57.2319L62.5598 29.9842ZM9.91904 9.58153H22.6322C23.378 9.58153 23.9799 10.1705 23.9799 10.9001C23.9799 11.6209 23.378 12.2187 22.6322 12.2187H9.91904C9.17328 12.2187 8.57133 11.6209 8.57133 10.9001C8.57133 10.1705 9.17328 9.58153 9.91904 9.58153ZM9.91904 16.9479H22.6322C23.378 16.9479 23.9799 17.5369 23.9799 18.2665C23.9799 18.9961 23.378 19.5851 22.6322 19.5851H9.91904C9.17328 19.5851 8.57133 18.9961 8.57133 18.2665C8.57133 17.5369 9.17328 16.9479 9.91904 16.9479ZM8.57133 25.6329C8.57133 24.9033 9.17328 24.3143 9.91904 24.3143H15.0492C15.7949 24.3143 16.3969 24.9033 16.3969 25.6329C16.3969 26.3625 15.7949 26.9514 15.0492 26.9514H9.91904C9.17328 26.9514 8.57133 26.3625 8.57133 25.6329ZM29.6941 40.1283C29.173 40.647 28.3194 40.647 27.7894 40.1283L26.846 39.2053C26.262 38.634 25.3096 38.634 24.7256 39.2053L23.8541 40.058C22.219 41.6579 19.5505 41.6579 17.9153 40.058C17.3492 39.5042 16.3609 39.5042 15.8039 40.058L12.7402 43.0555C12.4706 43.3104 12.1292 43.4423 11.7878 43.4423C11.4374 43.4423 11.096 43.3104 10.8354 43.0555C10.3053 42.537 10.3053 41.7018 10.8354 41.192L13.8902 38.1944C14.6898 37.4209 15.741 36.9901 16.8551 36.9901C17.9782 36.9901 19.0294 37.4209 19.829 38.1944C20.413 38.7658 21.3564 38.7658 21.9404 38.1944L22.8209 37.3417C23.6115 36.5594 24.6627 36.1375 25.7858 36.1375C26.9089 36.1375 27.96 36.5594 28.7507 37.3417L29.6941 38.2647C30.2242 38.7834 30.2242 39.6185 29.6941 40.1283ZM32.8477 25C32.8477 25.7296 32.2457 26.3185 31.5 26.3185C30.7543 26.3185 30.1523 25.7296 30.1523 25V10.9001C30.1523 10.1705 30.7543 9.58153 31.5 9.58153C32.2457 9.58153 32.8477 10.1705 32.8477 10.9001V25ZM49.0919 10.9001C51.347 10.9001 53.1709 12.6846 53.1709 14.891C53.1709 17.0974 51.347 18.8906 49.0919 18.8906C46.8367 18.8906 45.0039 17.0974 45.0039 14.891C45.0039 12.6846 46.8367 10.9001 49.0919 10.9001ZM41.3921 28.2437C41.3921 24.0858 44.8422 20.7102 49.0919 20.7102C53.3416 20.7102 56.7917 24.0858 56.7917 28.2437H41.3921Z" fill="#3E31CF"/>
<path d="M77.1079 37.2909H73.007C71.9572 37.2909 71.2123 36.2791 71.5444 35.294L71.7867 34.5662L72.6391 29.8977C72.6929 29.596 72.7199 29.2942 72.7199 28.9924C72.7199 26.9068 71.4187 24.9896 69.3907 24.2263C67.4704 23.5075 65.3436 24.5636 64.7783 26.5073L63.531 30.8296L57.8059 37.2909H52C52.0359 37.5394 52.0538 37.7968 52.0538 38.0542V56.2486C52.0538 56.5149 52.0359 56.7723 52 57.0208H57.0072C58.0751 58.2811 59.6635 59 61.3325 59H71.993C75.6991 59 79.109 56.0268 79.5846 52.3967L80.9666 41.6398C81.2716 39.3323 79.45 37.2909 77.1079 37.2909Z" fill="#D06CFF"/>
<path d="M46.2222 33H43.7778C41.139 33 39 35.1868 39 37.8844V56.1156C39 58.8132 41.139 61 43.7778 61H46.2222C48.8609 61 51 58.8132 51 56.1156V37.8844C51 35.1868 48.8609 33 46.2222 33Z" fill="#D06CFF"/>
</svg>
