<svg width="60" height="60" viewBox="0 0 60 60" fill="none" xmlns="http://www.w3.org/2000/svg">
<path d="M30 0C13.45 0 0 13.45 0 30C0 46.55 13.45 60 30 60C31.875 60 33.7 59.825 35.5 59.5L33.45 53.35C33.15 53.65 32.825 53.9 32.5 54.125V50.475L27.85 36.55C27.6 35.825 27.5 35.075 27.5 34.35V39.425C25.125 39.525 22.8 39.725 20.6 40.1C20.15 37.75 19.85 35.2 19.725 32.45H27.5V34.35C27.5 32.575 28.2 30.85 29.525 29.525C30.8 28.225 32.525 27.5 34.375 27.5C35.125 27.5 35.85 27.625 36.575 27.85L50.35 32.45H54.875C54.825 32.95 54.775 33.425 54.675 33.9L59.5 35.5C59.825 33.7 60 31.875 60 30C60 13.45 46.55 0 30 0ZM27.5 44.425V54.125C25.35 52.675 23.3 49.475 21.85 44.95C23.675 44.675 25.55 44.5 27.5 44.425ZM9 16.475C11 17.425 13.25 18.225 15.7 18.875C15.175 21.55 14.85 24.425 14.725 27.45H5.125C5.525 23.45 6.925 19.725 9 16.475ZM5.125 32.45H14.725C14.85 35.525 15.175 38.425 15.7 41.125C13.25 41.775 11 42.575 9 43.525C6.9 40.275 5.525 36.5 5.125 32.45ZM19.85 52.825C16.975 51.55 14.4 49.75 12.225 47.55C13.65 46.925 15.225 46.4 16.9 45.975C17.7 48.55 18.7 50.875 19.85 52.825ZM16.9 14.025C15.225 13.6 13.65 13.075 12.225 12.45C14.4 10.25 16.975 8.45 19.85 7.175C18.7 9.125 17.7 11.45 16.9 14.025ZM27.5 27.45H19.725C19.85 24.75 20.15 22.225 20.6 19.9C22.8 20.275 25.125 20.475 27.5 20.575V27.45ZM27.5 15.575C25.55 15.5 23.675 15.325 21.85 15.05C23.3 10.525 25.35 7.325 27.5 5.875V15.575ZM32.5 5.875C34.65 7.325 36.7 10.525 38.15 15.05C36.325 15.325 34.45 15.5 32.5 15.575V5.875ZM32.5 27.45V20.575C34.875 20.475 37.2 20.275 39.4 19.9C39.85 22.225 40.15 24.75 40.275 27.45H32.5ZM40.15 7.175C43.025 8.45 45.6 10.25 47.775 12.45C46.35 13.075 44.775 13.6 43.1 14.025C42.3 11.45 41.3 9.125 40.15 7.175ZM45.275 27.45C45.15 24.425 44.825 21.55 44.3 18.875C46.75 18.225 49 17.425 51 16.475C53.075 19.725 54.475 23.45 54.875 27.45H45.275Z" fill="#3E31CF"/>
<path d="M42.292 60C42.2795 60 42.2645 60 42.2495 60C41.4595 59.9825 40.7645 59.47 40.5145 58.7175L32.597 34.9675C32.372 34.2925 32.547 33.55 33.0495 33.0475C33.552 32.5425 34.2945 32.3675 34.9695 32.595L58.7195 40.5125C59.4695 40.7625 59.982 41.4575 60.002 42.2475C60.0195 43.0375 59.5395 43.7575 58.7995 44.04L48.142 48.14L44.042 58.7975C43.762 59.525 43.0645 60 42.292 60Z" fill="#D06CFF"/>
</svg>
